<svg id="Laag_3_kopie_3" data-name="Laag 3 kopie 3" xmlns="http://www.w3.org/2000/svg" xmlns:xlink="http://www.w3.org/1999/xlink" viewBox="0 0 1080 1080"><defs><style>.cls-1{fill:none;}.cls-2{fill:#5fe1ff;}.cls-3{fill:#c0fcec;}.cls-4{fill:#20608a;}.cls-5{clip-path:url(#clip-path);}.cls-6{fill:#2b8bc1;}.cls-7{fill:url(#Naamloos_verloop_42);}.cls-8{fill:#47ffd7;}</style><clipPath id="clip-path"><path class="cls-1" d="M784.83,774.8,565.47,620,776,347.54a41.23,41.23,0,0,1,65.25,0L1051.72,620,832.37,774.8A41.25,41.25,0,0,1,784.83,774.8Z"/></clipPath><linearGradient id="Naamloos_verloop_42" x1="808.6" y1="616.95" x2="808.6" y2="830.36" gradientUnits="userSpaceOnUse"><stop offset="0" stop-color="#479dd7"/><stop offset="0.25" stop-color="#47bdd7"/><stop offset="0.57" stop-color="#47e1d7"/><stop offset="0.83" stop-color="#47f7d7"/><stop offset="1" stop-color="#47ffd7"/></linearGradient></defs><title>Logo Naturama</title><path class="cls-2" d="M784.83,774.8,565.47,620,776,347.54a41.23,41.23,0,0,1,65.25,0L1051.72,620,832.37,774.8A41.25,41.25,0,0,1,784.83,774.8Z"/><circle class="cls-3" cx="808.6" cy="416.52" r="36.24"/><polygon class="cls-4" points="808.6 416.52 750.56 499.32 710.57 519.67 699.03 543.6 662.15 620.09 958.97 620.09 878.97 474.76 808.6 416.52"/><g class="cls-5"><polygon class="cls-6" points="630.01 476.95 596.04 535.79 663.98 535.79 630.01 476.95"/><polygon class="cls-6" points="630.01 489.43 579.05 577.68 680.97 577.68 630.01 489.43"/><polygon class="cls-6" points="630.01 506.37 564.39 620.02 695.63 620.02 630.01 506.37"/><polygon class="cls-6" points="704.95 464.94 668.11 528.75 741.79 528.75 704.95 464.94"/><polygon class="cls-6" points="704.95 478.47 649.69 574.18 760.21 574.18 704.95 478.47"/><polygon class="cls-6" points="704.95 496.84 633.79 620.09 776.11 620.09 704.95 496.84"/><polygon class="cls-6" points="987.19 476.95 1021.16 535.79 953.22 535.79 987.19 476.95"/><polygon class="cls-6" points="987.19 489.43 1038.14 577.68 936.23 577.68 987.19 489.43"/><polygon class="cls-6" points="987.19 506.37 1052.8 620.02 921.57 620.02 987.19 506.37"/><polygon class="cls-6" points="912.25 464.94 949.08 528.75 875.41 528.75 912.25 464.94"/><polygon class="cls-6" points="912.25 478.47 967.5 574.18 856.99 574.18 912.25 478.47"/><polygon class="cls-6" points="912.25 496.84 983.4 620.09 841.09 620.09 912.25 496.84"/><polygon class="cls-7" points="565.47 620.02 1051.72 620.02 1024.22 648.55 837.1 779.07 801.15 789.58 736.53 748.19 583.19 640.13 565.47 620.02"/></g><path class="cls-8" d="M19.32,549.85H35.5l26.14,53.81-1.16,1.26V549.85H73.13V620H56.85l-26-53L32,565.79V620H19.32Z"/><path class="cls-8" d="M108.69,549.85h8.4L144,620.09H129.7l-16.81-48-16.81,48H81.83Zm-14,46.23h37v12.75H94.73Z"/><path class="cls-8" d="M141.06,549.85h51.5V562.6h-51.5Zm19.13,5.75h13.23v64.49H160.19Z"/><path class="cls-8" d="M209.13,617.75a20.43,20.43,0,0,1-8.75-8.94,30.71,30.71,0,0,1-3-14.13V549.85h13.23V595q0,6,3.24,9.37t9.13,3.33q5.94,0,9.2-3.33t3.27-9.37V549.85h13.23v44.83a30.58,30.58,0,0,1-3,14.13,20.52,20.52,0,0,1-8.79,8.94,33,33,0,0,1-27.75,0Z"/><path class="cls-8" d="M263.19,549.8h13.23v70.29H263.19Zm5.26,29.27H292.9a6.32,6.32,0,0,0,3.57-1,6.57,6.57,0,0,0,2.39-2.9,11,11,0,0,0,.9-4.35,10.53,10.53,0,0,0-.85-4.34,6.51,6.51,0,0,0-2.39-2.9,6.43,6.43,0,0,0-3.62-1H268.45V549.8H294a19.58,19.58,0,0,1,10.19,2.61,17.64,17.64,0,0,1,6.81,7.36,26.39,26.39,0,0,1,0,22.08,17.52,17.52,0,0,1-6.83,7.37A19.64,19.64,0,0,1,294,591.83H268.45Zm14.78,10.58,14.16-2.22,18.94,32.66h-16Z"/><path class="cls-8" d="M345.84,549.85h8.41l26.86,70.24H366.86l-16.81-48-16.81,48H319Zm-14,46.23h37v12.75h-37Z"/><path class="cls-8" d="M434,549.85h17.44v70.24h-12V565.55l.48,3.09-13.43,43.62H414.78l-13.43-42.65.49-4.06v54.54h-12V549.85h17.44l13.38,47.34Z"/><path class="cls-8" d="M487,549.85h8.4l26.86,70.24H508l-16.81-48-16.81,48H460.15Zm-14,46.23h37v12.75H473Z"/></svg>